<svg xmlns="http://www.w3.org/2000/svg" width="46" height="46" fill="none" viewBox="0 0 46 46"><rect width="46" height="46" fill="#fff" rx="5"/><path fill="#9A9A9A" d="M19 21L23 21V34C23 34.5523 22.5523 35 22 35H20C19.4477 35 19 34.5523 19 34V21Z"/><path fill="#9A9A9A" d="M19 21H32C32.5523 21 33 20.5523 33 20V19H20C19.4477 19 19 19.4477 19 20V21Z"/><path fill="#9A9A9A" d="M31 19H33V15H31V19Z"/><path fill="#9A9A9A" d="M27 15H33V14C33 13.4477 32.5523 13 32 13H27V15Z"/><rect width="14" height="6" fill="#9A9A9A" rx="1" transform="matrix(1 0 0 -1 13 17)"/></svg>